<svg xmlns="http://www.w3.org/2000/svg" viewBox="0 0 64 64" fill="none">
  <rect x="8" y="8" width="48" height="48" rx="4" stroke="#22b8cf" stroke-width="2.5" fill="#0d1117"/>
  <rect x="18" y="4" width="4" height="6" rx="1" fill="#22b8cf" opacity="0.6"/>
  <rect x="30" y="4" width="4" height="6" rx="1" fill="#22b8cf" opacity="0.6"/>
  <rect x="42" y="4" width="4" height="6" rx="1" fill="#22b8cf" opacity="0.6"/>
  <rect x="18" y="54" width="4" height="6" rx="1" fill="#22b8cf" opacity="0.6"/>
  <rect x="30" y="54" width="4" height="6" rx="1" fill="#22b8cf" opacity="0.6"/>
  <rect x="42" y="54" width="4" height="6" rx="1" fill="#22b8cf" opacity="0.6"/>
  <rect x="4" y="18" width="6" height="4" rx="1" fill="#22b8cf" opacity="0.6"/>
  <rect x="4" y="30" width="6" height="4" rx="1" fill="#22b8cf" opacity="0.6"/>
  <rect x="4" y="42" width="6" height="4" rx="1" fill="#22b8cf" opacity="0.6"/>
  <rect x="54" y="18" width="6" height="4" rx="1" fill="#22b8cf" opacity="0.6"/>
  <rect x="54" y="30" width="6" height="4" rx="1" fill="#22b8cf" opacity="0.6"/>
  <rect x="54" y="42" width="6" height="4" rx="1" fill="#22b8cf" opacity="0.6"/>
  <text x="32" y="37" font-family="monospace" font-weight="700" font-size="16" fill="#22b8cf" text-anchor="middle" dominant-baseline="middle">AR</text>
</svg>
